<svg id="svg" version="1.1" xmlns="http://www.w3.org/2000/svg" xmlns:xlink="http://www.w3.org/1999/xlink" width="400" height="80" viewBox="0, 0, 400,80"><g id="svgg"><path id="path0" d="M48.303 1.583 C 48.199 1.813,48.013 2.000,47.890 2.000 C 47.733 2.000,47.667 2.248,47.667 2.833 C 47.667 3.611,47.639 3.667,47.250 3.667 C 46.868 3.667,46.833 3.729,46.833 4.405 C 46.833 5.044,46.783 5.151,46.458 5.197 C 46.069 5.252,46.055 5.286,46.021 6.250 C 46.004 6.708,45.931 6.833,45.678 6.833 C 45.385 6.833,45.117 7.251,45.181 7.608 C 45.277 8.143,45.138 8.500,44.833 8.500 C 44.588 8.500,44.492 8.621,44.471 8.958 C 44.456 9.210,44.435 9.546,44.425 9.705 C 44.415 9.863,44.270 10.093,44.103 10.215 C 43.913 10.354,43.766 10.734,43.710 11.230 C 43.644 11.819,43.520 12.088,43.227 12.280 C 42.914 12.486,42.833 12.685,42.833 13.258 C 42.833 13.877,42.781 13.984,42.458 14.030 C 42.139 14.075,42.076 14.200,42.033 14.865 C 41.990 15.523,41.925 15.654,41.616 15.698 C 41.386 15.731,41.244 15.874,41.233 16.083 C 41.224 16.267,41.205 16.577,41.191 16.772 C 41.178 16.968,41.028 17.164,40.859 17.208 C 40.536 17.293,40.270 18.142,40.434 18.568 C 40.494 18.726,40.394 18.825,40.138 18.862 C 39.746 18.917,39.721 18.979,39.686 19.958 C 39.673 20.314,39.583 20.500,39.423 20.500 C 39.105 20.500,38.833 21.019,38.833 21.627 C 38.833 21.925,38.675 22.258,38.417 22.500 C 38.097 22.800,38.000 23.059,38.000 23.609 C 38.000 24.223,37.943 24.341,37.610 24.425 C 37.287 24.506,37.216 24.640,37.193 25.210 C 37.168 25.864,36.921 26.240,36.633 26.063 C 36.497 25.979,36.455 26.194,36.430 27.083 C 36.420 27.470,36.332 27.595,36.042 27.637 C 35.720 27.682,35.667 27.790,35.667 28.402 C 35.667 28.999,35.600 29.144,35.250 29.303 C 34.908 29.459,34.833 29.611,34.833 30.152 C 34.833 30.652,34.757 30.835,34.518 30.911 C 34.194 31.014,34.006 31.459,34.002 32.130 C 34.001 32.339,33.890 32.553,33.756 32.604 C 33.549 32.684,33.355 33.033,33.237 33.542 C 33.221 33.610,33.199 33.929,33.188 34.250 C 33.171 34.708,33.098 34.833,32.845 34.833 C 32.480 34.833,32.260 35.339,32.414 35.824 C 32.487 36.056,32.396 36.227,32.092 36.427 C 31.757 36.646,31.667 36.842,31.667 37.353 C 31.667 37.709,31.592 38.009,31.500 38.021 C 31.408 38.032,31.240 38.051,31.125 38.063 C 30.999 38.075,30.897 38.392,30.866 38.865 C 30.824 39.523,30.759 39.654,30.450 39.698 C 30.140 39.742,30.075 39.872,30.033 40.542 C 29.990 41.197,29.926 41.333,29.658 41.333 C 29.451 41.333,29.326 41.455,29.313 41.667 C 29.301 41.850,29.273 42.150,29.250 42.333 C 29.227 42.517,29.199 42.742,29.188 42.833 C 29.176 42.925,29.060 43.000,28.930 43.000 C 28.656 43.000,28.258 44.063,28.396 44.424 C 28.539 44.797,28.333 45.167,27.982 45.167 C 27.715 45.167,27.667 45.293,27.667 46.000 C 27.667 46.773,27.637 46.833,27.259 46.833 C 26.891 46.833,26.847 46.910,26.801 47.625 C 26.757 48.301,26.695 48.424,26.375 48.470 C 26.044 48.517,26.000 48.620,26.000 49.340 C 26.000 49.954,25.945 50.135,25.777 50.071 C 25.518 49.971,25.132 50.373,25.176 50.696 C 25.257 51.289,25.140 51.635,24.833 51.715 C 24.609 51.774,24.491 51.957,24.471 52.276 C 24.456 52.537,24.435 52.885,24.425 53.050 C 24.416 53.216,24.327 53.403,24.229 53.467 C 23.897 53.682,23.667 54.307,23.667 54.989 C 23.667 55.601,23.626 55.667,23.250 55.667 C 22.868 55.667,22.833 55.729,22.833 56.405 C 22.833 57.044,22.783 57.151,22.458 57.197 C 22.139 57.242,22.076 57.366,22.033 58.031 C 21.990 58.690,21.925 58.821,21.616 58.865 C 21.306 58.909,21.242 59.039,21.199 59.708 C 21.157 60.364,21.093 60.500,20.824 60.500 C 20.509 60.500,20.480 60.582,20.431 61.625 C 20.423 61.785,20.267 61.993,20.083 62.087 C 19.836 62.214,19.737 62.458,19.700 63.028 C 19.660 63.645,19.581 63.817,19.303 63.889 C 19.068 63.951,18.990 64.066,19.060 64.249 C 19.116 64.396,19.093 64.474,19.008 64.422 C 18.923 64.369,18.830 64.646,18.801 65.038 C 18.762 65.589,18.665 65.787,18.375 65.915 L 18.000 66.079 18.000 73.040 L 18.000 80.000 201.167 80.000 L 384.333 80.000 384.333 54.651 C 384.333 29.442,384.331 29.302,384.000 29.215 C 383.756 29.151,383.661 28.977,383.646 28.564 C 383.634 28.254,383.606 27.925,383.583 27.833 C 383.560 27.742,383.532 27.510,383.521 27.318 C 383.509 27.120,383.355 26.931,383.167 26.882 C 382.918 26.817,382.833 26.654,382.833 26.242 C 382.833 25.724,382.488 25.167,382.166 25.167 C 382.088 25.167,381.999 24.998,381.970 24.792 C 381.935 24.546,381.802 24.417,381.583 24.417 C 381.312 24.417,381.235 24.278,381.167 23.667 C 381.098 23.046,381.018 22.907,380.708 22.863 C 380.460 22.828,380.333 22.696,380.333 22.473 C 380.333 22.283,380.197 22.100,380.020 22.054 C 379.848 22.009,379.625 21.791,379.524 21.569 C 379.423 21.348,379.231 21.167,379.098 21.167 C 378.965 21.167,378.808 21.017,378.750 20.833 C 378.691 20.647,378.484 20.489,378.280 20.475 C 378.080 20.462,377.767 20.443,377.583 20.434 C 377.371 20.423,377.231 20.280,377.197 20.042 C 377.159 19.774,377.031 19.667,376.750 19.667 C 376.469 19.667,376.341 19.560,376.303 19.292 C 376.260 18.984,376.130 18.908,375.578 18.867 C 375.072 18.830,374.866 18.727,374.744 18.451 C 374.605 18.133,374.433 18.077,373.469 18.034 C 372.465 17.990,372.349 17.949,372.302 17.618 C 372.253 17.273,372.153 17.247,370.726 17.202 C 369.402 17.161,369.192 17.114,369.121 16.844 C 368.940 16.150,360.821 16.120,360.362 16.811 C 360.155 17.123,359.968 17.167,358.834 17.167 C 357.081 17.167,356.500 17.296,356.500 17.688 C 356.500 17.949,356.371 18.000,355.706 18.000 C 355.043 18.000,354.885 18.062,354.748 18.375 C 354.618 18.671,354.408 18.768,353.750 18.836 C 352.807 18.934,352.500 19.079,352.500 19.427 C 352.500 19.570,352.337 19.667,352.095 19.667 C 351.802 19.667,351.675 19.770,351.637 20.042 C 351.603 20.280,351.462 20.423,351.250 20.434 C 351.067 20.443,350.741 20.462,350.526 20.475 C 350.293 20.490,350.101 20.630,350.051 20.824 C 350.004 21.002,349.805 21.171,349.608 21.199 C 349.370 21.233,349.267 21.350,349.300 21.547 C 349.335 21.751,349.191 21.900,348.842 22.022 C 348.515 22.136,348.333 22.313,348.333 22.516 C 348.333 22.722,348.217 22.833,348.000 22.833 C 347.756 22.833,347.667 22.944,347.667 23.250 C 347.667 23.580,347.583 23.667,347.262 23.667 C 346.968 23.667,346.842 23.770,346.803 24.042 C 346.769 24.283,346.616 24.436,346.375 24.470 C 346.118 24.506,345.999 24.638,345.997 24.887 C 345.996 25.086,345.810 25.425,345.585 25.638 C 345.360 25.852,345.182 26.077,345.191 26.138 C 345.251 26.579,345.125 26.833,344.845 26.833 C 344.638 26.833,344.504 26.967,344.470 27.208 C 344.372 27.896,343.667 27.809,343.667 27.109 C 343.667 26.317,343.521 26.000,343.158 26.000 C 342.918 26.000,342.842 25.849,342.801 25.292 C 342.759 24.703,342.687 24.574,342.375 24.530 C 342.104 24.492,342.000 24.365,342.000 24.072 C 342.000 23.751,341.913 23.667,341.583 23.667 C 341.250 23.667,341.167 23.583,341.167 23.250 C 341.167 22.917,341.083 22.833,340.750 22.833 C 340.417 22.833,340.333 22.750,340.333 22.417 C 340.333 22.116,340.244 22.000,340.012 22.000 C 339.805 22.000,339.671 21.866,339.637 21.625 C 339.602 21.384,339.449 21.231,339.208 21.197 C 338.976 21.164,338.833 21.028,338.833 20.840 C 338.833 20.521,338.412 20.265,338.152 20.426 C 338.068 20.478,338.000 20.328,338.000 20.093 C 338.000 19.692,337.950 19.667,337.167 19.667 C 336.389 19.667,336.333 19.639,336.333 19.250 C 336.333 18.868,336.271 18.833,335.595 18.833 C 334.956 18.833,334.849 18.783,334.803 18.458 C 334.758 18.138,334.634 18.076,333.958 18.033 C 333.319 17.992,333.167 17.923,333.167 17.675 C 333.167 17.251,332.850 17.167,331.256 17.167 C 330.052 17.167,329.862 17.127,329.792 16.860 C 329.598 16.117,320.737 16.111,320.543 16.854 C 320.476 17.112,320.246 17.161,318.940 17.202 C 317.552 17.246,317.402 17.283,317.255 17.618 C 317.118 17.930,316.940 17.993,316.088 18.035 C 315.231 18.076,315.059 18.138,314.919 18.458 C 314.785 18.762,314.621 18.833,314.047 18.833 C 313.432 18.833,313.326 18.887,313.235 19.250 C 313.169 19.513,313.013 19.667,312.811 19.667 C 312.624 19.667,312.426 19.839,312.334 20.082 C 312.240 20.329,312.056 20.487,311.880 20.472 C 311.130 20.409,310.833 20.508,310.833 20.822 C 310.833 21.029,310.699 21.163,310.458 21.197 C 310.217 21.231,310.064 21.384,310.030 21.625 C 309.992 21.896,309.865 22.000,309.572 22.000 C 309.349 22.000,309.176 22.056,309.186 22.125 C 309.255 22.562,309.119 22.817,308.792 22.863 C 308.525 22.901,308.420 23.025,308.430 23.292 C 308.440 23.574,308.350 23.667,308.066 23.667 C 307.803 23.667,307.674 23.779,307.637 24.042 C 307.602 24.283,307.449 24.436,307.208 24.470 C 306.971 24.504,306.833 24.638,306.833 24.837 C 306.833 25.010,306.646 25.339,306.417 25.568 L 306.000 25.985 306.000 21.571 L 306.000 17.158 303.625 17.204 C 301.383 17.247,301.249 17.269,301.233 17.583 C 301.224 17.767,301.205 28.923,301.191 42.375 L 301.167 66.833 294.351 66.833 L 287.536 66.833 287.437 67.230 C 287.240 68.012,287.786 68.000,253.654 68.000 C 219.504 68.000,220.406 68.021,219.881 67.219 L 219.628 66.833 213.171 66.833 L 206.713 66.833 206.793 66.417 C 206.852 66.107,206.977 66.000,207.280 66.000 C 208.141 66.000,208.333 65.743,208.333 64.591 C 208.333 63.394,208.230 63.000,207.915 63.000 C 207.796 63.000,207.621 62.775,207.525 62.500 C 207.429 62.225,207.239 62.000,207.104 62.000 C 206.968 62.000,206.833 61.831,206.803 61.625 C 206.754 61.280,206.663 61.250,205.667 61.250 C 204.670 61.250,204.579 61.280,204.530 61.625 C 204.492 61.896,204.365 62.000,204.072 62.000 C 203.753 62.000,203.667 62.087,203.667 62.408 C 203.667 62.775,203.590 62.820,202.875 62.866 C 202.199 62.909,202.076 62.972,202.030 63.292 C 201.981 63.639,201.893 63.667,200.822 63.667 C 199.804 63.667,199.667 63.704,199.667 63.979 C 199.667 64.636,194.974 64.633,194.268 63.975 C 194.014 63.738,193.676 63.667,192.813 63.667 C 191.775 63.667,191.686 63.638,191.637 63.292 C 191.603 63.054,191.449 62.898,191.219 62.865 C 190.991 62.832,190.834 62.675,190.802 62.448 C 190.769 62.217,190.612 62.064,190.375 62.030 C 190.135 61.996,190.000 61.862,190.000 61.658 C 190.000 61.457,189.846 61.301,189.583 61.235 C 189.324 61.170,189.167 61.012,189.167 60.818 C 189.167 60.625,189.009 60.467,188.750 60.402 C 188.385 60.310,188.333 60.207,188.333 59.565 C 188.333 58.956,188.280 58.833,188.015 58.833 C 187.554 58.833,187.559 59.036,187.523 37.178 C 187.500 23.286,187.438 17.543,187.308 17.387 C 187.158 17.205,188.696 17.167,196.151 17.167 L 205.176 17.167 205.130 14.875 L 205.083 12.583 204.333 12.471 C 203.921 12.409,199.875 12.352,195.342 12.346 C 188.931 12.336,187.144 12.289,187.300 12.133 C 187.548 11.885,187.583 1.890,187.337 1.500 C 187.211 1.299,186.669 1.239,184.590 1.197 L 182.000 1.143 182.000 6.738 L 182.000 12.333 177.625 12.346 C 175.219 12.352,172.912 12.409,172.500 12.471 L 171.750 12.583 171.704 14.875 L 171.657 17.167 176.827 17.167 L 181.996 17.167 182.040 38.105 L 182.083 59.043 182.458 59.292 C 182.763 59.494,182.833 59.695,182.833 60.361 C 182.833 61.014,182.918 61.267,183.250 61.598 C 183.479 61.828,183.667 62.181,183.667 62.385 C 183.667 62.608,183.815 62.819,184.042 62.919 C 184.248 63.009,184.424 63.196,184.433 63.333 C 184.442 63.471,184.461 63.752,184.475 63.958 C 184.492 64.214,184.606 64.333,184.833 64.333 C 185.017 64.333,185.176 64.408,185.188 64.500 C 185.199 64.592,185.218 64.760,185.229 64.875 C 185.241 64.990,185.419 65.107,185.625 65.137 C 185.896 65.175,186.000 65.302,186.000 65.595 C 186.000 65.911,186.088 66.000,186.397 66.000 C 186.689 66.000,186.816 66.111,186.874 66.417 L 186.954 66.833 174.477 66.833 C 163.123 66.833,161.371 66.777,162.250 66.440 C 162.630 66.294,162.630 20.654,162.250 20.274 C 162.112 20.136,162.000 19.941,162.000 19.841 C 162.000 19.714,161.278 19.672,159.662 19.704 L 157.324 19.750 157.331 43.292 L 157.338 66.833 146.836 66.833 L 136.333 66.833 136.333 34.000 L 136.333 1.167 134.428 1.167 C 133.379 1.167,132.329 1.240,132.094 1.329 L 131.667 1.492 131.667 15.389 L 131.667 29.287 131.250 29.207 C 130.924 29.145,130.833 29.027,130.833 28.661 C 130.833 27.983,130.672 27.667,130.327 27.667 C 130.139 27.667,130.003 27.524,129.970 27.292 C 129.936 27.051,129.783 26.898,129.542 26.863 C 129.270 26.825,129.167 26.698,129.167 26.405 C 129.167 26.087,129.079 26.000,128.762 26.000 C 128.468 26.000,128.342 25.896,128.303 25.625 C 128.270 25.390,128.116 25.231,127.892 25.199 C 127.695 25.171,127.496 25.002,127.449 24.824 C 127.369 24.518,127.018 24.411,126.292 24.472 C 126.085 24.489,126.000 24.375,126.000 24.081 C 126.000 23.753,125.915 23.667,125.595 23.667 C 125.302 23.667,125.175 23.563,125.137 23.292 C 125.092 22.979,124.964 22.908,124.367 22.865 C 123.785 22.823,123.622 22.737,123.496 22.407 C 123.369 22.071,123.227 22.000,122.691 22.000 C 122.208 22.000,121.979 21.907,121.800 21.638 C 121.606 21.345,121.354 21.261,120.488 21.200 C 119.835 21.154,119.366 21.037,119.286 20.901 C 118.812 20.086,106.537 20.109,106.224 20.925 C 106.160 21.092,105.867 21.167,105.274 21.169 C 104.108 21.172,103.667 21.312,103.667 21.677 C 103.667 21.922,103.512 21.992,102.875 22.033 C 102.199 22.076,102.076 22.138,102.030 22.458 C 101.984 22.783,101.877 22.833,101.238 22.833 C 100.562 22.833,100.500 22.868,100.500 23.250 C 100.500 23.583,100.417 23.667,100.083 23.667 C 99.778 23.667,99.667 23.756,99.667 24.000 C 99.667 24.183,99.573 24.345,99.458 24.359 C 99.344 24.373,99.175 24.402,99.083 24.423 C 98.992 24.444,98.710 24.470,98.458 24.481 C 98.123 24.495,98.000 24.587,98.000 24.822 C 98.000 25.029,97.866 25.163,97.625 25.197 C 97.419 25.226,97.241 25.344,97.229 25.458 C 97.218 25.573,97.199 25.734,97.188 25.815 C 97.176 25.897,96.971 26.013,96.733 26.073 C 96.405 26.155,96.319 26.261,96.384 26.508 C 96.451 26.764,96.384 26.833,96.068 26.833 C 95.751 26.833,95.667 26.921,95.667 27.250 C 95.667 27.583,95.583 27.667,95.250 27.667 C 94.946 27.667,94.833 27.756,94.833 27.997 C 94.833 28.210,94.686 28.364,94.417 28.432 C 94.118 28.507,94.000 28.649,94.000 28.935 C 94.000 29.218,93.907 29.333,93.677 29.333 C 93.422 29.333,93.330 29.491,93.241 30.083 C 93.156 30.649,93.056 30.833,92.832 30.833 C 92.487 30.833,92.284 31.250,92.421 31.681 C 92.486 31.885,92.380 32.071,92.092 32.260 C 91.858 32.413,91.667 32.676,91.667 32.845 C 91.667 33.014,91.479 33.339,91.250 33.568 C 90.917 33.901,90.833 34.152,90.833 34.814 C 90.833 35.547,90.790 35.650,90.458 35.697 C 90.048 35.755,90.045 35.768,90.018 37.625 C 90.004 38.567,89.946 38.833,89.756 38.833 C 89.009 38.833,88.885 49.901,89.625 50.500 C 89.950 50.763,90.000 50.960,90.000 51.993 C 90.000 53.039,90.050 53.232,90.417 53.598 C 90.733 53.915,90.833 54.189,90.833 54.740 C 90.833 55.373,90.886 55.477,91.250 55.568 C 91.616 55.660,91.667 55.763,91.667 56.408 C 91.667 57.044,91.717 57.151,92.042 57.197 C 92.280 57.231,92.423 57.371,92.434 57.583 C 92.482 58.539,92.519 58.667,92.744 58.667 C 92.981 58.667,93.290 59.077,93.310 59.417 C 93.316 59.508,93.473 59.607,93.660 59.637 C 93.866 59.669,94.000 59.816,94.000 60.012 C 94.000 60.189,94.080 60.333,94.179 60.333 C 94.516 60.333,94.833 60.810,94.833 61.318 C 94.833 61.722,94.919 61.849,95.250 61.932 C 95.509 61.997,95.667 62.154,95.667 62.348 C 95.667 62.542,95.824 62.700,96.083 62.765 C 96.344 62.830,96.500 62.987,96.500 63.185 C 96.500 63.408,96.619 63.500,96.905 63.500 C 97.164 63.500,97.349 63.620,97.417 63.833 C 97.490 64.063,97.725 64.199,98.178 64.271 C 98.727 64.359,98.833 64.440,98.833 64.771 C 98.833 65.079,98.923 65.167,99.238 65.167 C 99.532 65.167,99.658 65.270,99.697 65.542 C 99.741 65.852,99.880 65.931,100.500 66.000 C 101.134 66.070,101.253 66.141,101.269 66.458 L 101.288 66.833 92.477 66.833 L 83.667 66.833 83.667 66.322 C 83.667 65.696,83.401 65.167,83.087 65.167 C 82.930 65.167,82.836 64.932,82.801 64.458 C 82.759 63.869,82.687 63.741,82.375 63.697 C 82.044 63.650,82.000 63.547,82.000 62.822 C 82.000 62.056,81.971 62.000,81.583 62.000 C 81.200 62.000,81.167 61.939,81.167 61.242 C 81.167 60.669,81.071 60.389,80.775 60.093 C 80.559 59.877,80.336 59.412,80.278 59.059 C 80.221 58.706,80.070 58.341,79.942 58.248 C 79.814 58.154,79.654 57.751,79.586 57.352 C 79.501 56.844,79.369 56.601,79.149 56.544 C 78.920 56.484,78.833 56.310,78.833 55.911 C 78.833 55.149,78.684 54.833,78.325 54.833 C 78.077 54.833,78.008 54.681,77.967 54.042 C 77.924 53.366,77.862 53.242,77.542 53.197 C 77.217 53.151,77.167 53.044,77.167 52.405 C 77.167 51.729,77.132 51.667,76.750 51.667 C 76.361 51.667,76.333 51.611,76.333 50.833 C 76.333 50.232,76.269 50.000,76.101 50.000 C 75.834 50.000,75.667 49.646,75.667 49.082 C 75.667 48.868,75.490 48.480,75.273 48.221 C 75.053 47.957,74.829 47.406,74.764 46.967 C 74.682 46.408,74.558 46.155,74.334 46.083 C 74.103 46.010,74.005 45.796,73.968 45.283 C 73.926 44.708,73.851 44.574,73.550 44.531 C 73.241 44.487,73.176 44.357,73.134 43.698 C 73.091 43.033,73.027 42.909,72.708 42.863 C 72.383 42.817,72.333 42.711,72.333 42.056 C 72.333 41.442,72.271 41.286,72.000 41.215 C 71.781 41.158,71.660 40.978,71.647 40.689 C 71.609 39.820,71.578 39.749,71.208 39.697 C 70.880 39.650,70.833 39.546,70.833 38.861 C 70.833 38.210,70.771 38.052,70.458 37.915 C 70.164 37.785,70.061 37.566,69.979 36.892 C 69.859 35.916,69.745 35.667,69.416 35.667 C 69.259 35.667,69.169 35.414,69.134 34.875 C 69.091 34.199,69.028 34.076,68.708 34.030 C 68.384 33.984,68.333 33.877,68.333 33.238 C 68.333 32.611,68.283 32.500,68.000 32.500 C 67.732 32.500,67.667 32.389,67.667 31.930 C 67.667 31.150,67.520 30.833,67.158 30.833 C 66.911 30.833,66.842 30.681,66.801 30.042 C 66.757 29.366,66.695 29.242,66.375 29.197 C 66.051 29.151,66.000 29.044,66.000 28.405 C 66.000 27.729,65.965 27.667,65.583 27.667 C 65.194 27.667,65.167 27.612,65.167 26.822 C 65.167 25.885,64.948 25.333,64.577 25.333 C 64.398 25.333,64.333 25.129,64.333 24.568 C 64.333 23.942,64.272 23.786,64.000 23.715 C 63.774 23.656,63.666 23.486,63.664 23.189 C 63.660 22.422,63.477 22.000,63.147 22.000 C 62.887 22.000,62.833 21.874,62.833 21.262 C 62.833 20.623,62.783 20.516,62.458 20.470 C 62.138 20.424,62.076 20.301,62.033 19.625 C 61.987 18.910,61.942 18.833,61.574 18.833 C 61.196 18.833,61.167 18.773,61.167 17.992 C 61.167 17.309,61.088 17.078,60.750 16.765 C 60.478 16.513,60.333 16.199,60.333 15.862 C 60.333 15.573,60.195 15.215,60.019 15.048 C 59.846 14.884,59.653 14.439,59.590 14.058 C 59.512 13.583,59.379 13.341,59.165 13.285 C 58.933 13.224,58.841 13.019,58.802 12.477 C 58.759 11.875,58.687 11.741,58.384 11.698 C 58.075 11.654,58.010 11.523,57.967 10.865 C 57.924 10.200,57.861 10.075,57.542 10.030 C 57.219 9.984,57.167 9.877,57.167 9.256 C 57.167 8.627,57.114 8.523,56.750 8.432 C 56.383 8.339,56.333 8.238,56.333 7.580 C 56.333 7.077,56.233 6.733,56.026 6.526 C 55.857 6.357,55.672 5.926,55.614 5.568 C 55.557 5.210,55.358 4.792,55.172 4.640 C 54.986 4.488,54.833 4.164,54.833 3.921 C 54.833 3.348,54.554 2.833,54.244 2.833 C 54.067 2.833,54.000 2.633,54.000 2.101 C 54.000 1.162,54.014 1.167,50.983 1.167 L 48.493 1.167 48.303 1.583 M157.313 1.250 C 157.301 1.296,157.273 1.408,157.250 1.500 C 157.227 1.592,157.199 1.734,157.188 1.815 C 157.176 1.897,156.979 2.011,156.750 2.068 C 156.505 2.130,156.333 2.293,156.333 2.463 C 156.333 2.623,156.183 2.847,156.000 2.961 C 155.340 3.374,155.613 6.500,156.310 6.500 C 156.415 6.500,156.491 6.556,156.480 6.625 C 156.395 7.166,156.542 7.504,156.901 7.594 C 157.121 7.650,157.339 7.839,157.385 8.014 C 157.515 8.509,162.000 8.507,162.000 8.012 C 162.000 7.805,162.134 7.671,162.375 7.637 C 162.612 7.603,162.769 7.449,162.802 7.219 C 162.834 6.991,162.991 6.834,163.219 6.802 C 163.892 6.706,163.831 2.222,163.154 2.045 C 162.977 1.999,162.833 1.900,162.833 1.826 C 162.833 1.285,162.292 1.167,159.821 1.167 C 158.453 1.167,157.324 1.204,157.313 1.250 M51.701 9.167 C 51.742 9.797,51.809 9.925,52.121 9.969 C 52.349 10.002,52.483 10.131,52.470 10.303 C 52.407 11.088,52.517 11.466,52.833 11.548 C 53.036 11.601,53.176 11.789,53.191 12.026 C 53.205 12.241,53.224 12.567,53.233 12.750 C 53.244 12.960,53.386 13.103,53.616 13.135 C 53.925 13.179,53.990 13.310,54.033 13.969 C 54.076 14.634,54.139 14.758,54.458 14.803 C 54.781 14.849,54.833 14.957,54.833 15.577 C 54.833 16.129,54.931 16.391,55.247 16.691 C 55.571 16.998,55.662 17.252,55.664 17.857 C 55.666 18.527,55.719 18.644,56.055 18.728 C 56.281 18.785,56.443 18.950,56.442 19.121 C 56.437 20.111,56.508 20.333,56.833 20.333 C 57.138 20.333,57.277 20.690,57.181 21.226 C 57.117 21.582,57.385 22.000,57.678 22.000 C 57.948 22.000,58.000 22.120,58.000 22.747 C 58.000 23.404,58.050 23.506,58.417 23.598 C 58.782 23.690,58.833 23.793,58.833 24.435 C 58.833 25.104,58.869 25.167,59.250 25.167 C 59.640 25.167,59.667 25.221,59.667 26.011 C 59.667 26.962,59.886 27.500,60.274 27.500 C 60.439 27.500,60.500 27.593,60.439 27.752 C 60.271 28.189,60.531 29.039,60.859 29.125 C 61.178 29.208,61.194 29.251,61.229 30.083 C 61.244 30.430,61.365 30.634,61.625 30.748 C 61.930 30.881,62.000 31.046,62.000 31.623 C 62.000 32.270,62.037 32.333,62.417 32.333 C 62.806 32.333,62.833 32.389,62.833 33.167 C 62.833 33.944,62.861 34.000,63.250 34.000 C 63.643 34.000,63.667 34.051,63.667 34.905 C 63.667 35.748,63.933 36.333,64.317 36.333 C 64.386 36.333,64.443 36.465,64.442 36.625 C 64.438 37.538,64.519 37.799,64.833 37.882 C 65.074 37.944,65.167 38.109,65.167 38.471 C 65.167 39.185,65.323 39.500,65.675 39.500 C 65.923 39.500,65.992 39.653,66.033 40.292 C 66.075 40.961,66.140 41.091,66.450 41.135 C 66.759 41.179,66.824 41.310,66.866 41.969 C 66.909 42.634,66.973 42.758,67.292 42.803 C 67.615 42.849,67.667 42.956,67.667 43.583 C 67.667 44.205,67.721 44.321,68.042 44.382 C 68.248 44.422,60.673 44.465,51.208 44.477 L 34.000 44.500 34.000 44.000 C 34.000 43.616,34.075 43.500,34.323 43.500 C 34.579 43.500,34.670 43.341,34.761 42.736 C 34.826 42.303,35.038 41.796,35.250 41.567 C 35.456 41.345,35.625 40.972,35.625 40.739 C 35.625 40.506,35.784 40.146,35.979 39.939 C 36.236 39.665,36.333 39.348,36.333 38.781 C 36.333 38.059,36.365 38.000,36.750 38.000 C 37.139 38.000,37.167 37.944,37.167 37.167 C 37.167 36.389,37.194 36.333,37.583 36.333 C 37.963 36.333,38.000 36.270,38.000 35.623 C 38.000 35.046,38.070 34.881,38.375 34.748 C 38.662 34.622,38.762 34.422,38.800 33.892 C 38.837 33.388,38.934 33.179,39.157 33.121 C 39.369 33.066,39.502 32.814,39.587 32.312 C 39.654 31.911,39.850 31.404,40.021 31.186 C 40.193 30.967,40.335 30.592,40.336 30.353 C 40.338 30.108,40.521 29.745,40.753 29.524 C 41.080 29.214,41.167 28.966,41.167 28.344 C 41.167 27.635,41.204 27.558,41.542 27.570 C 41.872 27.582,41.923 27.491,41.967 26.802 C 42.010 26.143,42.075 26.013,42.384 25.969 C 42.694 25.925,42.758 25.795,42.801 25.125 C 42.843 24.469,42.907 24.333,43.176 24.333 C 43.364 24.333,43.511 24.211,43.525 24.042 C 43.539 23.881,43.568 23.675,43.589 23.583 C 43.611 23.492,43.637 23.257,43.647 23.061 C 43.659 22.856,43.808 22.669,44.000 22.618 C 44.258 22.551,44.333 22.391,44.333 21.910 C 44.333 21.461,44.449 21.181,44.750 20.902 C 45.022 20.650,45.167 20.336,45.167 20.000 C 45.167 19.664,45.312 19.350,45.583 19.098 C 45.911 18.795,46.000 18.548,46.000 17.951 C 46.000 17.293,46.050 17.183,46.368 17.137 C 46.663 17.094,46.748 16.953,46.798 16.417 C 46.833 16.050,46.931 15.725,47.017 15.693 C 47.398 15.555,47.667 15.099,47.667 14.591 C 47.667 14.179,47.751 14.017,48.000 13.952 C 48.272 13.880,48.333 13.724,48.333 13.099 C 48.333 12.459,48.385 12.333,48.649 12.333 C 49.007 12.333,49.167 12.023,49.167 11.327 C 49.167 11.039,49.332 10.683,49.583 10.432 C 49.918 10.097,50.000 9.849,50.000 9.174 C 50.000 8.388,50.027 8.333,50.417 8.333 C 50.646 8.333,50.833 8.265,50.833 8.182 C 50.833 7.567,51.657 8.502,51.701 9.167 M248.389 12.000 C 248.389 12.688,248.419 12.969,248.455 12.625 C 248.491 12.281,248.491 11.719,248.455 11.375 C 248.419 11.031,248.389 11.313,248.389 12.000 M229.879 12.000 C 229.879 12.412,229.911 12.581,229.951 12.375 C 229.991 12.169,229.991 11.831,229.951 11.625 C 229.911 11.419,229.879 11.588,229.879 12.000 M287.581 42.500 C 287.581 55.654,287.601 61.035,287.625 54.458 C 287.649 47.881,287.649 37.119,287.625 30.542 C 287.601 23.965,287.581 29.346,287.581 42.500 M229.904 20.000 L 229.917 21.250 239.208 21.293 L 248.500 21.336 248.467 20.043 L 248.434 18.750 248.376 19.958 L 248.319 21.167 239.167 21.167 L 230.015 21.167 229.953 19.958 L 229.891 18.750 229.904 20.000 M328.530 21.542 C 328.580 21.896,328.670 21.919,330.125 21.965 C 331.639 22.012,331.667 22.020,331.667 22.423 C 331.667 22.805,331.724 22.833,332.518 22.833 C 333.244 22.833,333.353 22.874,333.262 23.112 C 333.122 23.477,333.438 23.661,334.208 23.664 C 334.721 23.666,334.833 23.726,334.833 24.000 C 334.833 24.244,334.944 24.333,335.250 24.333 C 335.583 24.333,335.667 24.417,335.667 24.750 C 335.667 25.051,335.756 25.167,335.988 25.167 C 336.193 25.167,336.330 25.301,336.363 25.535 C 336.397 25.767,336.570 25.939,336.833 26.001 C 337.063 26.054,337.259 26.189,337.271 26.299 C 337.282 26.410,337.301 26.575,337.313 26.667 C 337.324 26.758,337.479 26.833,337.657 26.833 C 337.919 26.833,337.991 26.969,338.032 27.542 C 338.074 28.125,338.148 28.259,338.450 28.302 C 338.759 28.346,338.824 28.477,338.866 29.135 C 338.909 29.800,338.973 29.925,339.292 29.970 C 339.637 30.019,339.667 30.110,339.667 31.111 C 339.667 32.058,339.710 32.209,340.000 32.285 C 340.455 32.404,340.409 30.562,340.461 50.964 L 340.500 66.511 340.875 66.661 C 341.102 66.753,334.309 66.816,323.625 66.823 L 306.000 66.833 306.000 53.500 C 306.000 41.916,306.032 40.167,306.244 40.167 C 306.503 40.167,306.874 39.068,306.825 38.445 C 306.705 36.922,306.853 34.667,307.073 34.667 C 307.419 34.667,307.504 34.460,307.603 33.386 C 307.667 32.700,307.782 32.367,308.012 32.206 C 308.239 32.047,308.333 31.783,308.333 31.306 C 308.333 30.785,308.428 30.557,308.750 30.304 C 308.984 30.120,309.167 29.803,309.167 29.583 C 309.167 29.302,309.274 29.175,309.542 29.137 C 309.852 29.092,309.925 28.964,309.967 28.385 C 310.009 27.813,310.084 27.678,310.384 27.635 C 310.612 27.603,310.770 27.446,310.802 27.219 C 310.834 26.991,310.991 26.834,311.219 26.802 C 311.449 26.769,311.603 26.612,311.637 26.375 C 311.671 26.134,311.805 26.000,312.012 26.000 C 312.239 26.000,312.333 25.884,312.333 25.605 C 312.333 25.271,312.439 25.192,313.017 25.100 C 313.502 25.022,313.725 24.895,313.786 24.662 C 313.847 24.431,314.015 24.333,314.353 24.333 C 314.722 24.333,314.833 24.256,314.833 24.000 C 314.833 23.766,314.945 23.666,315.208 23.664 C 315.904 23.660,316.333 23.466,316.333 23.156 C 316.333 22.911,316.488 22.842,317.125 22.801 C 317.801 22.757,317.924 22.695,317.970 22.375 C 318.021 22.016,318.092 22.000,319.601 22.000 C 321.051 22.000,321.208 21.968,321.548 21.601 C 321.912 21.207,321.961 21.202,325.197 21.184 L 328.477 21.167 328.530 21.542 M367.667 21.411 C 367.667 21.820,368.250 22.000,369.572 22.000 C 370.698 22.000,370.833 22.034,370.833 22.316 C 370.833 22.686,371.145 22.833,371.930 22.833 C 372.377 22.833,372.500 22.901,372.500 23.148 C 372.500 23.393,372.666 23.487,373.250 23.575 C 373.842 23.663,374.000 23.755,374.000 24.010 C 374.000 24.241,374.115 24.333,374.405 24.333 C 374.698 24.333,374.825 24.437,374.863 24.708 C 374.898 24.949,375.051 25.102,375.292 25.137 C 375.531 25.171,375.667 25.305,375.667 25.508 C 375.667 25.709,375.821 25.866,376.083 25.932 C 376.353 25.999,376.500 26.153,376.500 26.367 C 376.500 26.558,376.641 26.735,376.833 26.785 C 377.017 26.833,377.176 26.938,377.188 27.019 C 377.199 27.100,377.218 27.260,377.229 27.375 C 377.241 27.490,377.415 27.607,377.616 27.635 C 377.916 27.678,377.991 27.813,378.033 28.385 C 378.075 28.964,378.148 29.092,378.458 29.137 C 378.778 29.182,378.834 29.292,378.836 29.887 C 378.839 30.856,378.986 31.306,379.334 31.417 C 379.584 31.496,379.643 31.744,379.691 32.915 C 379.740 34.086,379.805 34.360,380.083 34.563 C 380.412 34.803,380.417 35.031,380.471 50.820 L 380.526 66.833 363.263 66.833 L 346.000 66.833 346.000 51.167 C 346.000 37.209,346.028 35.500,346.255 35.500 C 346.629 35.500,346.798 34.963,346.821 33.708 C 346.829 33.218,346.905 33.000,347.067 33.000 C 347.351 33.000,347.667 32.154,347.667 31.392 C 347.667 30.944,347.733 30.833,348.000 30.833 C 348.289 30.833,348.333 30.722,348.333 30.000 C 348.333 29.222,348.361 29.167,348.750 29.167 C 349.083 29.167,349.167 29.083,349.167 28.750 C 349.167 28.417,349.250 28.333,349.583 28.333 C 349.895 28.333,350.000 28.245,350.000 27.984 C 350.000 27.783,350.133 27.601,350.313 27.554 C 350.485 27.509,350.709 27.291,350.809 27.069 C 350.910 26.848,351.107 26.667,351.246 26.667 C 351.386 26.667,351.500 26.522,351.500 26.345 C 351.500 26.138,351.634 26.004,351.875 25.970 C 352.116 25.936,352.269 25.783,352.303 25.542 C 352.342 25.270,352.468 25.167,352.762 25.167 C 353.083 25.167,353.167 25.080,353.167 24.750 C 353.167 24.417,353.250 24.333,353.583 24.333 C 353.885 24.333,354.000 24.244,354.000 24.010 C 354.000 23.748,354.136 23.676,354.708 23.635 C 355.255 23.595,355.454 23.498,355.581 23.208 C 355.719 22.894,355.876 22.833,356.550 22.833 C 357.451 22.833,358.000 22.610,358.000 22.244 C 358.000 22.051,358.265 22.000,359.261 22.000 C 360.583 22.000,361.167 21.820,361.167 21.411 C 361.167 21.205,361.674 21.167,364.417 21.167 C 367.160 21.167,367.667 21.205,367.667 21.411 M114.919 24.708 C 115.073 25.061,115.196 25.086,116.947 25.130 C 118.729 25.175,118.814 25.194,118.864 25.547 C 118.908 25.856,119.039 25.925,119.665 25.970 C 120.140 26.004,120.524 26.142,120.717 26.349 C 120.883 26.528,121.090 26.630,121.177 26.577 C 121.263 26.524,121.333 26.560,121.333 26.657 C 121.333 26.754,121.481 26.833,121.661 26.833 C 121.841 26.833,122.068 26.983,122.166 27.166 C 122.278 27.374,122.591 27.537,123.005 27.604 C 123.503 27.683,123.667 27.787,123.667 28.021 C 123.667 28.241,123.787 28.333,124.072 28.333 C 124.365 28.333,124.492 28.437,124.530 28.708 C 124.574 29.020,124.703 29.092,125.292 29.135 C 125.918 29.180,126.000 29.233,126.000 29.593 C 126.000 29.916,126.086 30.000,126.417 30.000 C 126.747 30.000,126.833 30.084,126.833 30.405 C 126.833 30.638,127.010 30.948,127.250 31.137 C 127.504 31.337,127.667 31.634,127.667 31.899 C 127.667 32.214,127.753 32.333,127.982 32.333 C 128.179 32.333,128.336 32.489,128.402 32.750 C 128.469 33.019,128.623 33.167,128.837 33.167 C 129.032 33.167,129.175 33.286,129.188 33.458 C 129.199 33.619,129.218 33.938,129.229 34.167 C 129.242 34.426,129.391 34.645,129.625 34.748 C 129.962 34.896,130.129 35.514,130.020 36.208 C 130.009 36.277,130.184 36.333,130.409 36.333 C 130.802 36.333,130.821 36.383,130.868 37.542 C 130.913 38.650,130.948 38.754,131.292 38.803 L 131.667 38.857 131.667 44.428 C 131.667 47.746,131.604 50.000,131.512 50.000 C 131.102 50.000,130.833 50.563,130.833 51.421 C 130.833 52.156,130.758 52.394,130.417 52.735 C 130.082 53.069,130.000 53.318,130.000 53.992 C 130.000 54.778,129.973 54.833,129.583 54.833 C 129.354 54.833,129.176 54.890,129.186 54.958 C 129.251 55.369,129.125 55.639,128.833 55.715 C 128.517 55.798,128.410 56.141,128.472 56.875 C 128.489 57.081,128.375 57.167,128.081 57.167 C 127.753 57.167,127.667 57.251,127.667 57.572 C 127.667 57.865,127.563 57.992,127.292 58.030 C 127.054 58.064,126.898 58.217,126.865 58.448 C 126.832 58.675,126.675 58.832,126.448 58.865 C 126.221 58.897,126.064 59.054,126.031 59.281 C 125.999 59.509,125.842 59.666,125.615 59.698 C 125.394 59.730,125.258 59.861,125.271 60.029 C 125.283 60.191,125.131 60.348,124.907 60.404 C 124.695 60.457,124.475 60.651,124.417 60.834 C 124.358 61.017,124.166 61.167,123.989 61.167 C 123.812 61.167,123.667 61.270,123.667 61.396 C 123.667 61.755,123.290 61.981,122.617 62.027 C 122.097 62.062,122.000 62.128,122.000 62.451 C 122.000 62.793,121.921 62.833,121.253 62.833 C 120.596 62.833,120.494 62.883,120.402 63.250 C 120.303 63.644,120.235 63.667,119.149 63.667 C 118.111 63.667,118.000 63.699,118.000 64.000 C 118.000 64.390,118.480 64.356,112.697 64.368 C 108.577 64.376,108.472 64.368,108.230 64.021 C 108.024 63.728,107.812 63.667,106.998 63.667 C 106.172 63.667,105.949 63.600,105.598 63.250 C 105.278 62.930,105.009 62.833,104.436 62.833 C 103.789 62.833,103.683 62.783,103.637 62.458 C 103.602 62.217,103.449 62.064,103.208 62.030 C 103.002 62.001,102.833 61.912,102.833 61.834 C 102.833 61.511,102.274 61.167,101.750 61.167 C 101.296 61.167,101.180 61.095,101.136 60.792 C 101.096 60.515,100.984 60.427,100.708 60.456 C 100.412 60.488,100.333 60.411,100.333 60.093 C 100.333 59.802,100.229 59.675,99.958 59.637 C 99.712 59.602,99.583 59.469,99.583 59.250 C 99.583 59.031,99.454 58.898,99.208 58.863 C 98.937 58.825,98.833 58.698,98.833 58.405 C 98.833 58.084,98.747 58.000,98.417 58.000 C 98.102 58.000,98.000 57.913,98.000 57.644 C 98.000 57.448,97.813 57.114,97.583 56.902 C 97.349 56.685,97.167 56.330,97.167 56.091 C 97.167 55.752,97.085 55.667,96.759 55.667 C 96.391 55.667,96.347 55.590,96.301 54.875 C 96.271 54.412,96.169 54.083,96.056 54.083 C 95.733 54.083,95.633 53.886,95.633 53.251 C 95.633 52.765,95.554 52.616,95.233 52.494 C 94.873 52.357,94.833 52.243,94.833 51.358 C 94.833 49.912,94.685 49.333,94.313 49.333 C 93.886 49.333,93.818 40.226,94.244 40.063 C 94.633 39.913,94.784 39.381,94.814 38.061 C 94.830 37.371,94.894 37.190,95.149 37.123 C 95.367 37.066,95.500 36.825,95.583 36.336 C 95.648 35.948,95.844 35.489,96.018 35.316 C 96.191 35.142,96.333 34.793,96.333 34.540 C 96.333 34.222,96.450 34.028,96.708 33.915 C 96.998 33.787,97.095 33.589,97.135 33.042 C 97.180 32.416,97.233 32.333,97.593 32.333 C 97.877 32.333,98.000 32.241,98.000 32.027 C 98.000 31.858,98.188 31.635,98.417 31.530 C 98.646 31.426,98.833 31.231,98.833 31.098 C 98.833 30.965,98.983 30.808,99.167 30.750 C 99.350 30.692,99.500 30.535,99.500 30.401 C 99.500 30.268,99.688 30.087,99.917 30.000 C 100.172 29.903,100.333 29.711,100.333 29.504 C 100.333 29.255,100.443 29.167,100.750 29.167 C 101.083 29.167,101.167 29.083,101.167 28.750 C 101.167 28.417,101.250 28.333,101.583 28.333 C 101.889 28.333,102.000 28.244,102.000 28.000 C 102.000 27.731,102.111 27.667,102.571 27.667 C 103.114 27.667,103.667 27.324,103.667 26.988 C 103.667 26.903,103.835 26.832,104.042 26.831 C 104.747 26.827,105.167 26.634,105.167 26.314 C 105.167 26.054,105.293 26.000,105.897 26.000 C 106.493 26.000,106.679 25.923,106.901 25.583 C 107.162 25.185,107.247 25.167,108.841 25.167 C 110.457 25.167,110.513 25.154,110.697 24.750 C 110.979 24.131,114.650 24.095,114.919 24.708 M248.389 28.833 C 248.389 29.521,248.419 29.802,248.455 29.458 C 248.491 29.115,248.491 28.552,248.455 28.208 C 248.419 27.865,248.389 28.146,248.389 28.833 M229.883 28.833 C 229.883 29.337,229.915 29.544,229.953 29.292 C 229.991 29.040,229.991 28.627,229.953 28.375 C 229.915 28.123,229.883 28.329,229.883 28.833 M229.911 35.676 C 229.850 35.775,229.845 35.901,229.900 35.956 C 229.955 36.011,230.000 35.968,230.000 35.861 C 230.000 35.715,232.292 35.667,239.159 35.667 L 248.319 35.667 248.379 36.792 L 248.439 37.917 248.428 36.750 L 248.417 35.583 239.219 35.540 C 232.796 35.510,229.988 35.551,229.911 35.676 M229.808 37.016 C 229.776 37.483,229.806 37.900,229.875 37.942 C 229.944 37.985,230.000 37.603,230.000 37.093 C 230.000 35.933,229.885 35.887,229.808 37.016 M275.205 39.986 C 275.316 40.131,275.427 40.281,275.453 40.319 C 275.479 40.358,275.500 40.239,275.500 40.056 C 275.500 39.872,275.389 39.722,275.253 39.722 C 275.054 39.722,275.045 39.774,275.205 39.986 M229.901 44.398 C 229.852 44.525,229.841 44.956,229.877 45.356 C 229.941 46.075,229.942 46.073,229.971 45.208 L 230.000 44.333 239.158 44.333 L 248.316 44.333 248.377 45.208 L 248.438 46.083 248.469 45.125 L 248.500 44.167 239.245 44.167 C 231.511 44.167,229.975 44.205,229.901 44.398 M70.030 49.542 C 70.064 49.783,70.217 49.936,70.458 49.970 C 70.783 50.016,70.833 50.123,70.833 50.758 C 70.833 51.404,70.884 51.506,71.250 51.598 C 71.615 51.690,71.667 51.793,71.667 52.435 C 71.667 53.056,71.717 53.167,72.000 53.167 C 72.183 53.167,72.340 53.260,72.349 53.375 C 72.357 53.490,72.389 53.919,72.418 54.329 C 72.455 54.833,72.583 55.164,72.813 55.351 C 73.002 55.504,73.183 55.884,73.218 56.204 C 73.295 56.905,73.442 57.167,73.760 57.167 C 73.933 57.167,74.000 57.374,74.000 57.913 C 74.000 58.571,74.050 58.673,74.417 58.765 C 74.782 58.857,74.833 58.960,74.833 59.601 C 74.833 60.271,74.869 60.333,75.250 60.333 C 75.639 60.333,75.667 60.389,75.667 61.167 C 75.667 61.873,75.715 62.000,75.982 62.000 C 76.331 62.000,76.540 62.370,76.399 62.737 C 76.276 63.057,76.620 63.667,76.923 63.667 C 77.084 63.667,77.171 63.849,77.179 64.208 C 77.201 65.161,77.328 65.578,77.668 65.812 C 77.851 65.938,78.000 66.219,78.000 66.437 L 78.000 66.833 50.833 66.833 L 23.667 66.833 23.667 66.417 C 23.667 66.111,23.756 66.000,24.000 66.000 C 24.289 66.000,24.333 65.889,24.333 65.167 C 24.333 64.389,24.361 64.333,24.750 64.333 C 25.130 64.333,25.167 64.270,25.167 63.610 C 25.167 63.000,25.232 62.857,25.583 62.697 C 25.926 62.541,26.000 62.389,26.000 61.848 C 26.000 61.349,26.076 61.165,26.313 61.090 C 26.633 60.988,26.833 60.367,26.833 59.475 C 26.833 59.113,26.938 58.952,27.250 58.833 C 27.610 58.697,27.667 58.572,27.667 57.921 C 27.667 57.278,27.716 57.167,28.000 57.167 C 28.283 57.167,28.333 57.056,28.333 56.435 C 28.333 55.793,28.385 55.690,28.750 55.598 C 29.113 55.507,29.167 55.402,29.167 54.786 C 29.167 54.213,29.238 54.048,29.542 53.915 C 29.831 53.787,29.928 53.589,29.968 53.042 C 30.003 52.553,30.095 52.333,30.264 52.333 C 30.540 52.333,30.833 51.683,30.833 51.072 C 30.833 50.822,30.930 50.667,31.084 50.667 C 31.240 50.667,31.410 50.384,31.535 49.917 L 31.736 49.167 50.856 49.167 L 69.977 49.167 70.030 49.542 M132.333 63.000 L 132.333 66.833 128.273 66.833 L 124.213 66.833 124.293 66.417 C 124.358 66.072,124.468 66.000,124.924 66.000 C 125.450 66.000,126.000 65.653,126.000 65.321 C 126.000 65.236,126.188 65.167,126.417 65.167 C 126.750 65.167,126.833 65.083,126.833 64.750 C 126.833 64.417,126.917 64.333,127.250 64.333 C 127.556 64.333,127.667 64.244,127.667 64.000 C 127.667 63.778,127.778 63.667,128.000 63.667 C 128.244 63.667,128.333 63.556,128.333 63.250 C 128.333 62.917,128.417 62.833,128.750 62.833 C 129.083 62.833,129.167 62.750,129.167 62.417 C 129.167 62.083,129.250 62.000,129.583 62.000 C 129.917 62.000,130.000 61.917,130.000 61.583 C 130.000 61.250,130.083 61.167,130.417 61.167 C 130.747 61.167,130.833 61.083,130.833 60.762 C 130.833 60.469,130.937 60.342,131.207 60.303 C 131.420 60.273,131.607 60.109,131.643 59.921 C 131.693 59.657,132.091 59.197,132.292 59.172 C 132.315 59.169,132.333 60.892,132.333 63.000 M162.382 73.208 C 162.401 75.001,162.368 76.517,162.310 76.577 C 162.092 76.799,158.986 76.868,158.490 76.662 C 156.626 75.890,156.692 72.558,158.582 71.997 C 158.950 71.888,159.338 71.727,159.446 71.639 C 159.576 71.534,159.815 71.568,160.146 71.740 C 161.187 72.277,161.667 71.991,161.667 70.833 C 161.667 70.067,161.943 69.543,162.207 69.807 C 162.284 69.884,162.363 71.414,162.382 73.208 M169.437 70.258 C 169.349 70.486,169.283 70.499,169.079 70.330 C 168.885 70.169,168.873 70.070,169.024 69.887 C 169.273 69.587,169.586 69.868,169.437 70.258 M177.528 72.043 C 177.499 72.217,177.330 72.503,177.154 72.679 C 176.892 72.941,176.834 73.237,176.836 74.292 C 176.839 75.821,176.894 75.934,177.709 76.087 C 178.451 76.226,178.533 76.599,177.876 76.849 C 176.694 77.298,175.975 76.341,175.988 74.338 C 175.992 73.648,175.952 72.732,175.899 72.302 C 175.823 71.695,175.870 71.431,176.109 71.114 L 176.417 70.706 176.999 71.217 C 177.360 71.533,177.561 71.848,177.528 72.043 M150.179 71.923 C 151.217 72.449,151.333 72.742,151.333 74.824 C 151.333 76.782,151.344 76.771,149.583 76.738 C 147.436 76.698,147.529 76.725,147.249 76.055 C 146.708 74.761,147.679 73.667,149.367 73.667 C 150.618 73.667,150.974 72.837,149.823 72.606 C 149.505 72.543,149.331 72.405,149.328 72.212 C 149.323 71.934,149.309 71.934,149.091 72.222 C 148.824 72.575,147.601 72.798,147.432 72.524 C 147.366 72.418,147.580 72.239,147.952 72.090 C 148.299 71.951,148.696 71.766,148.833 71.678 C 149.198 71.447,149.263 71.459,150.179 71.923 M230.727 71.751 C 230.990 71.888,231.294 72.000,231.402 72.000 C 231.746 72.000,232.010 72.371,231.825 72.594 C 231.636 72.821,230.333 72.576,230.333 72.313 C 230.333 72.066,229.875 72.151,229.773 72.417 C 229.720 72.554,229.527 72.667,229.342 72.667 C 229.007 72.667,228.333 73.765,228.333 74.312 C 228.333 75.609,229.381 76.314,230.990 76.100 C 231.632 76.015,231.815 76.046,231.894 76.252 C 232.138 76.886,229.378 77.095,228.622 76.501 C 226.941 75.178,227.162 72.607,229.009 71.997 C 229.380 71.875,229.722 71.713,229.768 71.637 C 229.893 71.435,230.190 71.471,230.727 71.751 M240.667 71.750 C 240.781 71.887,241.011 72.000,241.178 72.000 C 241.994 72.000,242.413 72.718,242.475 74.224 L 242.533 75.644 241.939 76.239 C 241.052 77.126,239.129 77.140,238.255 76.266 C 237.019 75.030,237.344 72.562,238.807 72.075 C 239.097 71.979,239.424 71.810,239.533 71.700 C 239.810 71.423,240.417 71.450,240.667 71.750 M211.569 72.083 C 212.947 72.083,213.480 72.368,212.503 72.583 C 211.780 72.742,211.358 73.705,211.297 75.333 C 211.232 77.053,210.610 77.260,210.544 75.583 C 210.451 73.243,210.348 72.821,209.820 72.637 C 209.320 72.463,209.172 72.093,209.542 71.944 C 209.656 71.898,209.862 71.910,210.000 71.972 C 210.137 72.033,210.844 72.083,211.569 72.083 M215.051 72.794 C 215.373 73.451,215.193 76.583,214.833 76.583 C 214.641 76.583,214.574 76.334,214.543 75.500 C 214.467 73.430,214.361 73.023,213.823 72.745 C 213.278 72.463,213.177 72.060,213.625 71.958 C 214.071 71.857,214.802 72.286,215.051 72.794 M250.692 72.292 C 250.802 72.402,250.714 72.494,250.434 72.564 C 249.811 72.720,249.617 73.233,249.511 74.998 C 249.435 76.272,249.364 76.590,249.148 76.631 C 248.627 76.730,248.424 72.711,248.921 72.161 C 249.193 71.861,250.346 71.946,250.692 72.292 M252.833 72.168 C 253.063 72.230,253.457 72.210,253.710 72.123 C 254.196 71.957,254.667 72.050,254.667 72.312 C 254.667 72.397,254.460 72.539,254.207 72.628 C 253.642 72.825,253.333 73.810,253.333 75.419 L 253.333 76.500 252.833 76.500 L 252.333 76.500 252.333 75.094 C 252.333 73.389,252.156 72.863,251.498 72.615 C 250.130 72.099,251.224 71.732,252.833 72.168 M256.386 72.155 C 256.876 72.341,257.092 73.354,256.813 74.154 C 256.711 74.445,256.668 74.886,256.717 75.133 C 256.765 75.381,256.705 75.808,256.583 76.083 C 256.374 76.552,256.360 76.497,256.347 75.203 C 256.331 73.557,256.050 72.757,255.435 72.603 C 255.016 72.498,254.869 72.186,255.120 71.936 C 255.244 71.812,255.685 71.889,256.386 72.155 M169.467 72.200 C 169.761 72.494,169.742 76.396,169.446 76.642 C 168.976 77.032,168.833 76.492,168.833 74.328 C 168.833 71.999,168.933 71.666,169.467 72.200 M208.736 72.101 C 209.126 72.251,209.057 72.450,208.572 72.571 C 208.295 72.641,208.061 72.878,207.908 73.245 C 207.778 73.556,207.596 73.858,207.503 73.915 C 207.409 73.973,207.333 74.570,207.333 75.242 C 207.333 76.367,207.056 77.007,206.774 76.534 C 206.702 76.415,206.599 73.396,206.643 72.703 C 206.678 72.143,207.917 71.787,208.736 72.101 M159.500 72.317 C 159.500 72.400,159.275 72.546,158.999 72.642 C 158.709 72.743,158.429 72.998,158.335 73.246 C 158.245 73.482,158.058 73.719,157.919 73.772 C 157.568 73.907,157.603 74.593,157.979 74.952 C 158.151 75.116,158.341 75.411,158.402 75.607 C 158.526 76.012,158.939 76.161,159.944 76.164 C 161.197 76.169,161.979 74.749,161.388 73.541 C 161.040 72.829,159.500 71.830,159.500 72.317 M185.465 73.911 C 185.524 75.950,185.664 76.167,186.920 76.167 L 187.788 76.167 188.084 75.375 C 188.247 74.940,188.457 74.485,188.552 74.366 C 188.646 74.246,188.706 73.740,188.686 73.241 C 188.653 72.425,188.684 72.333,188.991 72.333 C 189.357 72.333,189.528 75.769,189.188 76.304 C 188.899 76.760,186.343 77.019,185.455 76.681 C 184.644 76.373,183.854 72.561,184.542 72.274 C 185.292 71.960,185.415 72.178,185.465 73.911 M196.236 72.268 C 196.446 72.348,196.500 72.638,196.500 73.674 C 196.500 74.992,196.690 75.806,197.052 76.036 C 197.378 76.243,198.802 76.185,198.947 75.958 C 199.295 75.415,199.495 74.477,199.497 73.375 C 199.499 72.710,199.556 72.168,199.625 72.169 C 200.019 72.177,200.135 72.582,200.243 74.343 C 200.376 76.499,200.291 76.714,199.273 76.766 C 198.985 76.781,198.375 76.812,197.917 76.834 C 196.213 76.916,195.333 75.804,195.333 73.567 C 195.333 72.151,195.459 71.970,196.236 72.268 M239.250 72.608 C 238.371 73.067,238.091 73.996,238.440 75.298 C 238.752 76.462,241.252 76.452,241.658 75.285 C 242.322 73.382,240.866 71.764,239.250 72.608 M149.110 74.497 C 147.454 74.675,147.498 76.231,149.158 76.231 C 150.123 76.231,150.327 76.057,150.331 75.229 C 150.334 74.542,150.083 74.392,149.110 74.497 M222.243 76.322 C 222.296 76.407,222.259 76.526,222.161 76.587 C 221.915 76.739,221.456 76.539,221.583 76.335 C 221.713 76.124,222.116 76.116,222.243 76.322 " stroke="none" fill="#5b5b5c" fill-rule="evenodd"></path><path id="path1" d="M224.043 1.338 L 223.668 1.489 223.709 32.161 L 223.750 62.833 222.575 62.833 C 221.866 62.833,221.311 62.916,221.176 63.042 C 220.996 63.209,220.975 63.208,221.071 63.038 C 221.247 62.727,220.135 62.836,219.893 63.154 C 219.778 63.305,219.699 64.137,219.693 65.244 C 219.687 66.256,219.735 66.971,219.800 66.833 C 219.864 66.696,220.023 66.560,220.153 66.532 C 220.339 66.492,220.348 66.532,220.193 66.718 C 220.030 66.915,220.127 66.972,220.772 67.060 C 221.825 67.205,286.088 67.177,286.878 67.032 L 287.506 66.917 287.504 42.417 C 287.503 28.942,287.502 17.798,287.501 17.653 C 287.500 17.508,287.406 17.383,287.292 17.377 C 287.177 17.370,286.821 17.325,286.500 17.277 C 286.179 17.229,278.904 17.184,270.333 17.178 L 254.750 17.167 254.750 9.380 L 254.750 1.593 254.333 1.382 C 253.831 1.128,224.670 1.086,224.043 1.338 M224.458 47.375 C 224.434 55.465,224.415 48.846,224.415 32.667 C 224.415 16.488,224.434 9.869,224.458 17.958 C 224.482 26.048,224.482 39.285,224.458 47.375 M248.500 12.000 L 248.500 13.167 239.073 13.167 C 232.030 13.167,229.677 13.118,229.765 12.976 C 229.830 12.871,229.878 12.346,229.872 11.809 L 229.861 10.833 239.180 10.833 L 248.500 10.833 248.500 12.000 M277.946 17.458 C 273.653 17.483,266.678 17.483,262.446 17.458 C 258.213 17.434,261.725 17.413,270.250 17.413 C 278.775 17.413,282.238 17.434,277.946 17.458 M285.536 17.970 C 285.796 18.073,266.703 18.062,258.250 17.954 C 256.325 17.930,261.612 17.898,270.000 17.883 C 278.387 17.869,285.379 17.908,285.536 17.970 M249.320 19.476 C 249.313 19.810,249.270 19.971,249.224 19.833 C 248.867 18.761,248.858 18.686,249.095 18.778 C 249.245 18.835,249.328 19.094,249.320 19.476 M248.500 20.083 L 248.500 21.333 239.167 21.333 C 228.731 21.333,229.800 21.457,229.800 20.250 C 229.800 20.021,229.808 19.608,229.817 19.333 L 229.833 18.833 239.167 18.833 L 248.500 18.833 248.500 20.083 M229.274 21.248 C 229.221 21.384,229.260 21.478,229.359 21.456 C 229.458 21.435,229.559 21.533,229.583 21.674 C 229.610 21.834,229.492 21.942,229.274 21.959 C 229.022 21.978,228.985 21.945,229.146 21.846 C 229.327 21.735,229.328 21.693,229.156 21.635 C 228.946 21.565,229.041 21.000,229.263 21.000 C 229.321 21.000,229.326 21.112,229.274 21.248 M243.792 27.125 C 241.248 27.151,237.085 27.151,234.542 27.125 C 231.998 27.099,234.079 27.078,239.167 27.078 C 244.254 27.078,246.335 27.099,243.792 27.125 M267.292 27.124 C 266.581 27.155,265.419 27.155,264.708 27.124 C 263.998 27.093,264.579 27.067,266.000 27.067 C 267.421 27.067,268.002 27.093,267.292 27.124 M279.883 27.124 C 279.131 27.155,277.856 27.155,277.050 27.124 C 276.243 27.094,276.858 27.068,278.417 27.068 C 279.975 27.068,280.635 27.093,279.883 27.124 M249.333 27.581 C 249.333 27.843,248.899 27.926,248.879 27.668 C 248.863 27.457,248.935 27.383,249.094 27.444 C 249.226 27.494,249.333 27.556,249.333 27.581 M248.465 28.833 L 248.513 30.083 239.184 30.039 L 229.856 29.995 229.801 29.622 C 229.770 29.418,229.791 28.931,229.846 28.542 C 229.912 28.080,229.884 27.832,229.765 27.831 C 229.665 27.829,229.696 27.755,229.833 27.666 C 229.990 27.564,233.512 27.518,239.250 27.543 L 248.417 27.583 248.465 28.833 M269.387 27.815 C 269.341 27.988,269.386 28.179,269.485 28.241 C 269.606 28.315,269.655 29.205,269.632 30.885 L 269.597 33.417 269.500 30.833 L 269.403 28.250 269.368 31.118 L 269.333 33.987 265.984 34.035 C 264.108 34.062,262.593 34.017,262.541 33.933 C 262.490 33.850,262.535 33.835,262.641 33.901 C 262.784 33.989,262.833 33.181,262.833 30.760 L 262.833 27.500 266.151 27.500 C 269.321 27.500,269.465 27.514,269.387 27.815 M282.035 30.745 L 281.986 34.000 278.368 33.989 C 275.809 33.982,274.871 33.931,275.163 33.814 C 275.500 33.680,275.530 33.621,275.329 33.494 C 275.194 33.408,275.158 33.337,275.250 33.336 C 275.354 33.334,275.417 32.303,275.417 30.583 C 275.417 29.071,275.360 27.833,275.292 27.833 C 275.223 27.833,275.167 27.764,275.167 27.679 C 275.167 27.589,276.620 27.517,278.625 27.507 L 282.083 27.490 282.035 30.745 M274.834 30.708 L 274.751 33.250 274.704 30.925 C 274.662 28.876,274.705 28.167,274.870 28.166 C 274.896 28.166,274.879 29.310,274.834 30.708 M229.371 28.794 C 229.414 28.956,229.390 29.237,229.319 29.419 C 229.221 29.671,229.187 29.601,229.178 29.125 C 229.166 28.455,229.247 28.317,229.371 28.794 M248.466 36.792 L 248.515 38.000 239.174 38.000 C 229.709 38.000,229.721 37.999,229.818 38.554 C 229.831 38.630,229.765 38.644,229.670 38.586 C 229.569 38.523,229.556 38.366,229.639 38.198 C 229.716 38.043,229.798 37.542,229.821 37.085 C 229.844 36.627,229.895 36.201,229.934 36.138 C 229.973 36.075,229.921 35.971,229.818 35.907 C 229.270 35.568,230.860 35.507,239.250 35.543 L 248.417 35.583 248.466 36.792 M248.836 36.667 L 248.694 37.250 248.722 36.550 C 248.737 36.166,248.801 35.903,248.864 35.967 C 248.927 36.031,248.914 36.346,248.836 36.667 M243.792 38.458 C 241.248 38.484,237.085 38.484,234.542 38.458 C 231.998 38.432,234.079 38.411,239.167 38.411 C 244.254 38.411,246.335 38.432,243.792 38.458 M282.035 42.833 L 281.987 46.167 278.671 46.167 L 275.354 46.167 275.374 43.178 C 275.388 41.021,275.336 40.120,275.187 39.941 C 275.004 39.721,275.391 39.689,278.440 39.673 C 280.343 39.663,281.935 39.620,281.978 39.578 C 282.021 39.535,282.062 39.500,282.069 39.500 C 282.077 39.500,282.062 41.000,282.035 42.833 M269.341 40.042 C 269.345 40.248,269.342 41.554,269.334 42.944 C 269.324 44.535,269.383 45.511,269.493 45.579 C 269.588 45.638,269.666 45.776,269.664 45.885 C 269.663 46.004,269.597 45.984,269.500 45.833 C 269.362 45.620,269.338 45.626,269.336 45.875 C 269.334 46.143,269.064 46.167,266.033 46.167 C 263.631 46.167,262.669 46.223,262.496 46.375 C 262.366 46.490,262.388 46.427,262.546 46.237 C 262.795 45.936,262.833 45.479,262.833 42.779 L 262.833 39.667 266.083 39.667 L 269.333 39.667 269.341 40.042 M269.624 44.201 C 269.592 44.870,269.566 44.367,269.566 43.083 C 269.565 41.800,269.591 41.253,269.623 41.868 C 269.655 42.482,269.656 43.532,269.624 44.201 M274.790 44.208 C 274.758 44.781,274.731 44.313,274.731 43.167 C 274.731 42.021,274.758 41.552,274.790 42.125 C 274.823 42.698,274.823 43.635,274.790 44.208 M248.484 45.208 L 248.450 46.250 239.219 46.206 C 229.115 46.157,229.781 46.228,229.792 45.195 C 229.805 44.060,228.830 44.167,239.175 44.167 L 248.518 44.167 248.484 45.208 M249.000 46.866 C 249.000 46.938,248.852 46.975,248.671 46.948 C 248.175 46.872,248.122 46.733,248.589 46.733 C 248.815 46.733,249.000 46.793,249.000 46.866 M269.333 52.657 C 269.333 52.835,269.408 53.027,269.500 53.083 C 269.599 53.144,269.667 54.165,269.667 55.583 C 269.667 57.002,269.599 58.022,269.500 58.083 C 269.408 58.140,269.333 58.332,269.333 58.510 C 269.333 58.819,269.189 58.833,266.083 58.833 L 262.833 58.833 262.833 55.583 L 262.833 52.333 266.083 52.333 C 269.189 52.333,269.333 52.348,269.333 52.657 M282.000 55.583 L 282.000 58.833 278.417 58.833 C 275.908 58.833,274.833 58.778,274.833 58.649 C 274.833 58.547,274.946 58.508,275.083 58.560 C 275.221 58.613,275.335 58.565,275.338 58.453 C 275.405 55.364,275.393 53.000,275.311 53.000 C 275.253 53.000,275.166 52.850,275.118 52.667 C 275.033 52.341,275.113 52.333,278.516 52.333 L 282.000 52.333 282.000 55.583 M269.400 55.583 C 269.400 56.958,269.426 57.499,269.457 56.784 C 269.489 56.069,269.488 54.944,269.457 54.284 C 269.425 53.624,269.400 54.208,269.400 55.583 M274.791 56.784 C 274.759 57.499,274.734 56.958,274.733 55.583 C 274.733 54.208,274.759 53.624,274.790 54.284 C 274.822 54.944,274.822 56.069,274.791 56.784 M233.667 56.395 C 233.667 56.315,236.129 56.250,239.140 56.250 L 244.613 56.250 244.458 56.917 C 244.373 57.283,244.332 58.765,244.367 60.208 L 244.429 62.833 239.215 62.833 L 234.000 62.833 234.000 59.659 C 234.000 57.217,233.952 56.492,233.792 56.512 C 233.312 56.575,232.987 56.488,233.088 56.325 C 233.162 56.206,233.271 56.212,233.432 56.346 C 233.561 56.453,233.667 56.475,233.667 56.395 M233.457 60.784 C 233.426 61.499,233.400 60.958,233.400 59.583 C 233.400 58.208,233.425 57.624,233.457 58.284 C 233.488 58.944,233.489 60.069,233.457 60.784 " stroke="none" fill="#8c3494" fill-rule="evenodd"></path><path id="path2" d="M262.446 17.458 C 266.678 17.483,273.653 17.483,277.946 17.458 C 282.238 17.434,278.775 17.413,270.250 17.413 C 261.725 17.413,258.213 17.434,262.446 17.458 M258.250 17.954 C 266.703 18.062,285.796 18.073,285.536 17.970 C 285.379 17.908,278.387 17.869,270.000 17.883 C 261.612 17.898,256.325 17.930,258.250 17.954 M229.048 21.282 C 228.985 21.447,229.029 21.593,229.156 21.635 C 229.328 21.693,229.327 21.735,229.146 21.846 C 228.985 21.945,229.022 21.978,229.274 21.959 C 229.492 21.942,229.610 21.834,229.583 21.674 C 229.559 21.533,229.458 21.435,229.359 21.456 C 229.260 21.478,229.221 21.384,229.274 21.248 C 229.326 21.112,229.321 21.000,229.263 21.000 C 229.204 21.000,229.108 21.127,229.048 21.282 M234.542 27.125 C 237.085 27.151,241.248 27.151,243.792 27.125 C 246.335 27.099,244.254 27.078,239.167 27.078 C 234.079 27.078,231.998 27.099,234.542 27.125 M264.708 27.124 C 265.419 27.155,266.581 27.155,267.292 27.124 C 268.002 27.093,267.421 27.067,266.000 27.067 C 264.579 27.067,263.998 27.093,264.708 27.124 M277.050 27.124 C 277.856 27.155,279.131 27.155,279.883 27.124 C 280.635 27.093,279.975 27.068,278.417 27.068 C 276.858 27.068,276.243 27.094,277.050 27.124 M248.879 27.668 C 248.897 27.906,248.956 27.939,249.118 27.804 C 249.388 27.580,249.387 27.556,249.094 27.444 C 248.935 27.383,248.863 27.457,248.879 27.668 M234.542 27.625 C 237.085 27.651,241.248 27.651,243.792 27.625 C 246.335 27.599,244.254 27.578,239.167 27.578 C 234.079 27.578,231.998 27.599,234.542 27.625 M264.458 27.624 C 265.398 27.654,266.935 27.654,267.875 27.624 C 268.815 27.595,268.046 27.570,266.167 27.570 C 264.287 27.570,263.519 27.595,264.458 27.624 M277.301 27.624 C 278.245 27.654,279.745 27.654,280.634 27.624 C 281.523 27.594,280.750 27.570,278.917 27.570 C 277.083 27.570,276.356 27.595,277.301 27.624 M269.499 30.800 L 269.582 33.417 269.629 30.930 C 269.655 29.562,269.618 28.384,269.546 28.312 C 269.475 28.241,269.454 29.360,269.499 30.800 M274.740 28.383 C 274.694 28.502,274.678 29.646,274.704 30.925 L 274.751 33.250 274.834 30.708 C 274.915 28.207,274.905 27.953,274.740 28.383 M275.400 30.750 C 275.400 32.125,275.426 32.665,275.457 31.951 C 275.489 31.236,275.488 30.111,275.457 29.451 C 275.425 28.790,275.400 29.375,275.400 30.750 M248.722 36.550 L 248.694 37.250 248.836 36.667 C 248.914 36.346,248.927 36.031,248.864 35.967 C 248.801 35.903,248.737 36.166,248.722 36.550 M234.542 38.458 C 237.085 38.484,241.248 38.484,243.792 38.458 C 246.335 38.432,244.254 38.411,239.167 38.411 C 234.079 38.411,231.998 38.432,234.542 38.458 M269.566 43.083 C 269.566 44.367,269.592 44.870,269.624 44.201 C 269.656 43.532,269.655 42.482,269.623 41.868 C 269.591 41.253,269.565 41.800,269.566 43.083 M274.731 43.167 C 274.731 44.313,274.758 44.781,274.790 44.208 C 274.823 43.635,274.823 42.698,274.790 42.125 C 274.758 41.552,274.731 42.021,274.731 43.167 M275.398 43.167 C 275.398 44.313,275.424 44.781,275.457 44.208 C 275.489 43.635,275.489 42.698,275.457 42.125 C 275.424 41.552,275.398 42.021,275.398 43.167 M233.167 46.121 C 241.523 46.237,248.461 46.238,248.391 46.125 C 248.348 46.056,244.174 46.017,239.115 46.038 C 234.056 46.059,231.379 46.096,233.167 46.121 M262.479 46.292 C 262.277 46.549,262.281 46.559,262.513 46.379 C 262.695 46.237,263.791 46.159,266.096 46.125 L 269.417 46.076 266.062 46.038 C 263.038 46.004,262.685 46.029,262.479 46.292 M277.208 46.124 C 278.102 46.154,279.565 46.154,280.458 46.124 C 281.352 46.094,280.621 46.070,278.833 46.070 C 277.046 46.070,276.315 46.094,277.208 46.124 M248.260 46.815 C 248.406 46.962,249.000 47.002,249.000 46.866 C 249.000 46.793,248.815 46.733,248.589 46.733 C 248.363 46.733,248.215 46.770,248.260 46.815 M269.417 55.583 C 269.417 56.987,269.473 58.100,269.542 58.058 C 269.610 58.015,269.667 56.902,269.667 55.583 C 269.667 54.265,269.610 53.152,269.542 53.109 C 269.473 53.067,269.417 54.180,269.417 55.583 M274.733 55.583 C 274.734 56.958,274.759 57.499,274.791 56.784 C 274.822 56.069,274.822 54.944,274.790 54.284 C 274.759 53.624,274.733 54.208,274.733 55.583 M275.400 55.583 C 275.400 56.958,275.426 57.499,275.457 56.784 C 275.489 56.069,275.488 54.944,275.457 54.284 C 275.425 53.624,275.400 54.208,275.400 55.583 M233.100 56.306 C 232.976 56.508,233.567 56.664,233.833 56.500 C 233.978 56.411,233.983 56.342,233.851 56.261 C 233.750 56.198,233.667 56.236,233.667 56.344 C 233.667 56.495,233.611 56.495,233.432 56.346 C 233.293 56.230,233.157 56.214,233.100 56.306 " stroke="none" fill="#943494" fill-rule="evenodd"></path><path id="path3" d="M108.625 20.451 C 108.831 20.491,109.169 20.491,109.375 20.451 C 109.581 20.411,109.412 20.379,109.000 20.379 C 108.587 20.379,108.419 20.411,108.625 20.451 M116.292 20.451 C 116.498 20.491,116.835 20.491,117.042 20.451 C 117.248 20.411,117.079 20.379,116.667 20.379 C 116.254 20.379,116.085 20.411,116.292 20.451 M157.248 43.583 C 157.248 56.417,157.267 61.642,157.292 55.195 C 157.316 48.749,157.316 38.249,157.292 31.862 C 157.267 25.475,157.248 30.750,157.248 43.583 M380.413 52.250 C 380.413 60.317,380.433 63.641,380.458 59.638 C 380.483 55.634,380.483 49.034,380.458 44.971 C 380.433 40.908,380.413 44.183,380.413 52.250 M109.042 64.448 C 109.202 64.490,109.465 64.490,109.625 64.448 C 109.785 64.406,109.654 64.372,109.333 64.372 C 109.013 64.372,108.881 64.406,109.042 64.448 M116.208 64.448 C 116.369 64.490,116.631 64.490,116.792 64.448 C 116.952 64.406,116.821 64.372,116.500 64.372 C 116.179 64.372,116.048 64.406,116.208 64.448 M196.288 64.454 C 196.584 64.490,197.109 64.491,197.455 64.455 C 197.800 64.419,197.558 64.389,196.917 64.388 C 196.275 64.387,195.992 64.417,196.288 64.454 M161.867 69.867 C 161.757 69.977,161.667 70.412,161.667 70.833 C 161.667 71.991,161.187 72.277,160.146 71.740 C 159.815 71.568,159.576 71.534,159.446 71.639 C 159.338 71.727,158.950 71.888,158.582 71.997 C 156.692 72.558,156.626 75.890,158.490 76.662 C 158.986 76.868,162.092 76.799,162.310 76.577 C 162.468 76.415,162.371 69.971,162.207 69.807 C 162.130 69.730,161.977 69.757,161.867 69.867 M169.024 69.887 C 168.873 70.070,168.885 70.169,169.079 70.330 C 169.283 70.499,169.349 70.486,169.437 70.258 C 169.586 69.868,169.273 69.587,169.024 69.887 M176.109 71.114 C 175.870 71.431,175.823 71.695,175.899 72.302 C 175.952 72.732,175.992 73.648,175.988 74.338 C 175.975 76.341,176.694 77.298,177.876 76.849 C 178.533 76.599,178.451 76.226,177.709 76.087 C 176.894 75.934,176.839 75.821,176.836 74.292 C 176.834 73.237,176.892 72.941,177.154 72.679 C 177.676 72.157,177.636 71.776,176.999 71.217 L 176.417 70.706 176.109 71.114 M148.833 71.678 C 148.696 71.766,148.299 71.951,147.952 72.090 C 147.580 72.239,147.366 72.418,147.432 72.524 C 147.601 72.798,148.824 72.575,149.091 72.222 C 149.309 71.934,149.323 71.934,149.328 72.212 C 149.331 72.405,149.505 72.543,149.823 72.606 C 150.974 72.837,150.618 73.667,149.367 73.667 C 147.679 73.667,146.708 74.761,147.249 76.055 C 147.529 76.725,147.436 76.698,149.583 76.738 C 151.344 76.771,151.333 76.782,151.333 74.824 C 151.333 72.742,151.217 72.449,150.179 71.923 C 149.263 71.459,149.198 71.447,148.833 71.678 M229.768 71.637 C 229.722 71.713,229.380 71.875,229.009 71.997 C 227.162 72.607,226.941 75.178,228.622 76.501 C 229.378 77.095,232.138 76.886,231.894 76.252 C 231.815 76.046,231.632 76.015,230.990 76.100 C 229.381 76.314,228.333 75.609,228.333 74.312 C 228.333 73.765,229.007 72.667,229.342 72.667 C 229.527 72.667,229.720 72.554,229.773 72.417 C 229.875 72.151,230.333 72.066,230.333 72.313 C 230.333 72.576,231.636 72.821,231.825 72.594 C 232.010 72.371,231.746 72.000,231.402 72.000 C 231.294 72.000,230.990 71.888,230.727 71.751 C 230.190 71.471,229.893 71.435,229.768 71.637 M239.533 71.700 C 239.424 71.810,239.097 71.979,238.807 72.075 C 237.344 72.562,237.019 75.030,238.255 76.266 C 239.129 77.140,241.052 77.126,241.939 76.239 L 242.533 75.644 242.475 74.224 C 242.413 72.718,241.994 72.000,241.178 72.000 C 241.011 72.000,240.781 71.887,240.667 71.750 C 240.417 71.450,239.810 71.423,239.533 71.700 M209.542 71.944 C 209.172 72.093,209.320 72.463,209.820 72.637 C 210.348 72.821,210.451 73.243,210.544 75.583 C 210.610 77.260,211.232 77.053,211.297 75.333 C 211.358 73.705,211.780 72.742,212.503 72.583 C 213.480 72.368,212.947 72.083,211.569 72.083 C 210.844 72.083,210.137 72.033,210.000 71.972 C 209.862 71.910,209.656 71.898,209.542 71.944 M213.625 71.958 C 213.177 72.060,213.278 72.463,213.823 72.745 C 214.361 73.023,214.467 73.430,214.543 75.500 C 214.613 77.388,215.061 76.977,215.179 74.917 C 215.303 72.746,214.755 71.702,213.625 71.958 M248.921 72.161 C 248.424 72.711,248.627 76.730,249.148 76.631 C 249.364 76.590,249.435 76.272,249.511 74.998 C 249.617 73.233,249.811 72.720,250.434 72.564 C 250.997 72.423,250.728 72.164,249.852 72.003 C 249.320 71.906,249.122 71.940,248.921 72.161 M251.208 71.950 C 250.840 72.087,250.986 72.422,251.498 72.615 C 252.156 72.863,252.333 73.389,252.333 75.094 L 252.333 76.500 252.833 76.500 L 253.333 76.500 253.333 75.419 C 253.333 73.810,253.642 72.825,254.207 72.628 C 254.460 72.539,254.667 72.397,254.667 72.312 C 254.667 72.050,254.196 71.957,253.710 72.123 C 253.457 72.210,253.063 72.230,252.833 72.168 C 252.061 71.959,251.418 71.873,251.208 71.950 M255.120 71.936 C 254.869 72.186,255.016 72.498,255.435 72.603 C 256.050 72.757,256.331 73.557,256.347 75.203 C 256.360 76.497,256.374 76.552,256.583 76.083 C 256.705 75.808,256.765 75.381,256.717 75.133 C 256.668 74.886,256.711 74.445,256.813 74.154 C 257.092 73.354,256.876 72.341,256.386 72.155 C 255.685 71.889,255.244 71.812,255.120 71.936 M168.944 72.111 C 168.741 72.314,168.818 76.418,169.029 76.629 C 169.498 77.098,169.667 76.516,169.667 74.430 C 169.667 72.316,169.447 71.609,168.944 72.111 M207.042 72.172 C 206.615 72.344,206.602 72.429,206.661 74.750 C 206.708 76.586,206.733 76.695,207.089 76.558 C 207.273 76.487,207.333 76.163,207.333 75.242 C 207.333 74.570,207.409 73.973,207.503 73.915 C 207.596 73.858,207.778 73.556,207.908 73.245 C 208.061 72.878,208.295 72.641,208.572 72.571 C 208.808 72.512,209.000 72.405,209.000 72.333 C 209.000 71.999,207.731 71.895,207.042 72.172 M160.417 72.555 C 161.686 73.244,161.962 74.592,161.054 75.671 C 160.437 76.405,158.633 76.361,158.402 75.607 C 158.341 75.411,158.151 75.116,157.979 74.952 C 157.603 74.593,157.568 73.907,157.919 73.772 C 158.058 73.719,158.245 73.482,158.335 73.246 C 158.429 72.998,158.709 72.743,158.999 72.642 C 159.275 72.546,159.500 72.400,159.500 72.317 C 159.500 72.103,159.661 72.145,160.417 72.555 M184.542 72.274 C 183.854 72.561,184.644 76.373,185.455 76.681 C 186.343 77.019,188.899 76.760,189.188 76.304 C 189.528 75.769,189.357 72.333,188.991 72.333 C 188.684 72.333,188.653 72.425,188.686 73.241 C 188.706 73.740,188.646 74.246,188.552 74.366 C 188.457 74.485,188.247 74.940,188.084 75.375 L 187.788 76.167 186.920 76.167 C 185.664 76.167,185.524 75.950,185.465 73.911 C 185.415 72.178,185.292 71.960,184.542 72.274 M195.444 72.278 C 195.123 72.599,195.343 74.765,195.786 75.641 C 196.307 76.670,196.704 76.892,197.917 76.834 C 198.375 76.812,198.985 76.781,199.273 76.766 C 200.291 76.714,200.376 76.499,200.243 74.343 C 200.135 72.582,200.019 72.177,199.625 72.169 C 199.556 72.168,199.499 72.710,199.497 73.375 C 199.495 74.477,199.295 75.415,198.947 75.958 C 198.802 76.185,197.378 76.243,197.052 76.036 C 196.690 75.806,196.500 74.992,196.500 73.674 C 196.500 72.638,196.446 72.348,196.236 72.268 C 195.892 72.136,195.583 72.139,195.444 72.278 M240.856 72.625 C 241.757 73.041,242.074 74.093,241.658 75.285 C 241.252 76.452,238.752 76.462,238.440 75.298 C 237.885 73.227,239.143 71.834,240.856 72.625 M150.331 75.229 C 150.327 76.057,150.123 76.231,149.158 76.231 C 147.498 76.231,147.454 74.675,149.110 74.497 C 150.083 74.392,150.334 74.542,150.331 75.229 M221.583 76.335 C 221.456 76.539,221.915 76.739,222.161 76.587 C 222.259 76.526,222.296 76.407,222.243 76.322 C 222.116 76.116,221.713 76.124,221.583 76.335 " stroke="none" fill="#a3a3a5" fill-rule="evenodd"></path><path id="path4" d="M224.415 32.667 C 224.415 48.846,224.434 55.465,224.458 47.375 C 224.482 39.285,224.482 26.048,224.458 17.958 C 224.434 9.869,224.415 16.488,224.415 32.667 M249.003 19.042 C 249.008 19.517,249.328 19.761,249.331 19.292 C 249.332 19.040,249.258 18.833,249.167 18.833 C 249.075 18.833,249.001 18.927,249.003 19.042 M269.236 30.750 C 269.236 32.492,269.261 33.182,269.291 32.283 C 269.321 31.384,269.321 29.959,269.291 29.116 C 269.261 28.273,269.236 29.008,269.236 30.750 M269.236 42.833 C 269.236 44.621,269.261 45.352,269.291 44.458 C 269.321 43.565,269.321 42.102,269.291 41.208 C 269.261 40.315,269.236 41.046,269.236 42.833 M269.236 55.500 C 269.236 57.288,269.261 58.019,269.291 57.125 C 269.321 56.231,269.321 54.769,269.291 53.875 C 269.261 52.981,269.236 53.712,269.236 55.500 M233.400 59.583 C 233.400 60.958,233.426 61.499,233.457 60.784 C 233.489 60.069,233.488 58.944,233.457 58.284 C 233.425 57.624,233.400 58.208,233.400 59.583 M219.869 67.145 C 220.023 67.947,218.635 67.913,253.333 67.963 C 287.965 68.014,287.471 68.025,287.497 67.167 C 287.499 67.121,272.638 67.103,254.474 67.128 C 235.699 67.153,221.096 67.108,220.633 67.024 C 219.924 66.895,219.824 66.911,219.869 67.145 " stroke="none" fill="#8c3c94" fill-rule="evenodd"></path></g></svg>